<?xml version="1.0" standalone="no"?>
<!DOCTYPE svg PUBLIC "-//W3C//DTD SVG 20010904//EN"
 "http://www.w3.org/TR/2001/REC-SVG-20010904/DTD/svg10.dtd">
<svg version="1.0" xmlns="http://www.w3.org/2000/svg"
 width="498.000000pt" height="501.000000pt" viewBox="0 0 498.000000 501.000000"
 preserveAspectRatio="xMidYMid meet">

<g transform="translate(0.000000,501.000000) scale(0.100000,-0.100000)"
fill="#000000" stroke="none">
<path d="M0 2505 l0 -2505 2490 0 2490 0 0 2505 0 2505 -2490 0 -2490 0 0
-2505z m2430 2047 c0 -4 -22 -30 -50 -57 -27 -27 -50 -54 -50 -59 0 -6 23 -34
52 -63 l52 -53 -44 0 c-155 -1 -396 -62 -554 -142 -332 -166 -599 -467 -714
-803 -46 -134 -82 -319 -82 -424 0 -44 -4 -50 -60 -106 l-59 -59 -23 20 c-12
10 -39 37 -60 59 -35 36 -38 44 -38 95 0 231 84 528 211 751 257 449 668 739
1174 828 113 20 245 27 245 13z m310 -13 c279 -47 514 -149 735 -318 135 -103
296 -276 387 -416 31 -49 98 -164 98 -170 0 -3 15 -38 34 -78 75 -162 122
-368 132 -582 8 -157 10 -155 -65 -73 -24 26 -49 48 -55 48 -7 0 -31 -23 -55
-50 -24 -28 -47 -50 -51 -50 -4 0 -10 48 -14 108 -13 204 -56 378 -130 537
-40 84 -120 224 -135 235 -4 3 -18 21 -31 40 -37 53 -146 165 -219 224 -211
172 -448 277 -704 313 l-128 17 -56 59 -56 59 59 59 c69 70 69 70 254 38z
m-1792 -121 c30 -30 0 -75 -43 -64 -19 5 -25 13 -25 35 0 15 3 31 7 34 11 11
48 8 61 -5z m150 -19 c4 -33 -20 -53 -53 -45 -19 5 -25 13 -25 35 0 36 8 43
45 39 24 -2 31 -8 33 -29z m138 16 c4 -8 3 -26 0 -40 -11 -45 -76 -28 -76 20
0 12 3 25 7 28 12 13 64 7 69 -8z m2616 -2 c33 -30 16 -73 -29 -73 -40 0 -50
50 -15 78 20 15 22 15 44 -5z m-128 -15 c16 -26 -4 -53 -40 -53 -23 0 -30 5
-32 23 -2 13 -1 30 2 38 8 20 56 14 70 -8z m281 -18 c0 -32 -3 -35 -32 -38
-24 -2 -33 1 -38 17 -3 12 -3 30 0 42 5 16 14 19 38 17 29 -3 32 -6 32 -38z
m-3247 -222 c7 -7 12 -29 12 -49 0 -37 1 -38 43 -41 34 -2 43 -7 45 -25 3 -19
-2 -22 -40 -25 -37 -3 -43 -6 -46 -28 -6 -55 -13 -70 -32 -70 -14 0 -21 9 -25
38 -10 60 -12 62 -55 62 -37 0 -41 2 -38 23 2 18 10 23 45 25 40 3 42 4 48 45
10 61 19 69 43 45z m3412 -38 c5 -45 5 -45 50 -50 37 -4 45 -9 45 -25 0 -16
-8 -21 -45 -25 l-45 -5 -3 -48 c-3 -43 -5 -48 -25 -45 -18 2 -23 11 -27 48 -5
45 -5 45 -47 48 -38 3 -43 6 -43 28 0 22 4 24 45 24 45 0 45 0 45 34 0 47 9
68 29 64 11 -2 18 -17 21 -48z m-657 -425 c-1 -11 -5 -39 -9 -63 -4 -24 -1
-82 6 -131 16 -111 6 -147 -50 -186 -33 -23 -40 -34 -45 -74 -4 -25 -18 -109
-31 -186 -13 -77 -26 -154 -29 -170 -3 -17 -30 -114 -61 -215 -31 -102 -62
-207 -69 -234 -8 -27 -18 -53 -22 -57 -5 -5 -57 40 -117 100 l-107 108 51 169
c52 172 61 194 170 438 62 139 62 139 46 173 -40 85 -5 207 81 283 71 62 190
91 186 45z m-1914 -159 c67 -71 120 -134 118 -140 -3 -8 -279 -115 -300 -116
-11 0 3 360 14 382 15 29 41 10 168 -126z m197 -311 c53 -141 155 -426 259
-725 53 -151 105 -299 115 -328 11 -30 20 -61 20 -70 0 -13 -39 -30 -156 -71
-87 -30 -159 -50 -163 -45 -5 5 -18 36 -29 69 -19 57 -64 186 -220 630 -39
110 -95 267 -126 349 -31 82 -56 154 -56 160 0 7 50 30 111 51 61 22 130 47
153 56 22 9 45 16 50 15 4 -1 23 -42 42 -91z m761 -277 c51 -51 93 -99 93
-108 0 -17 -166 -180 -184 -180 -6 0 -56 45 -111 100 l-100 100 90 90 c49 49
96 90 105 90 8 0 56 -42 107 -92z m1520 -164 c51 -50 52 -56 19 -209 -45 -206
-78 -297 -166 -461 -77 -144 -164 -259 -294 -389 -204 -203 -431 -338 -710
-421 -150 -45 -426 -81 -426 -56 0 4 20 28 45 52 25 24 45 49 45 56 0 6 -25
35 -55 63 -30 29 -55 54 -55 56 0 1 37 6 83 10 194 16 373 63 522 137 238 117
456 316 594 541 88 145 166 352 187 502 6 44 14 58 73 117 73 74 62 74 138 2z
m-1767 -69 c90 -90 93 -95 75 -109 -19 -14 -24 -10 -81 46 -64 62 -96 73 -102
31 -2 -15 13 -35 57 -74 34 -29 61 -57 61 -61 0 -17 -64 -78 -81 -78 -9 0 -34
20 -55 45 -21 24 -53 52 -70 61 -21 11 -35 29 -43 53 -11 36 -11 36 61 108 40
40 75 73 78 73 3 0 48 -43 100 -95z m-1258 8 c38 -343 239 -702 519 -928 205
-166 430 -262 701 -300 l102 -14 60 -61 61 -60 -62 -62 -62 -62 -98 12 c-695
87 -1268 594 -1428 1265 -25 104 -47 258 -39 266 2 3 29 -19 58 -48 l54 -53
54 56 c29 31 57 55 63 53 5 -2 13 -31 17 -64z m2031 -301 c202 -202 367 -371
367 -375 0 -7 -179 -187 -186 -187 -10 0 -104 93 -104 103 0 5 22 34 50 63 31
33 48 58 44 68 -12 32 -36 25 -89 -25 -47 -44 -56 -49 -74 -39 -29 15 -26 31
9 65 35 33 38 50 10 65 -16 8 -26 5 -55 -21 -36 -32 -60 -33 -72 -3 -4 10 11
33 46 68 36 37 50 57 45 69 -11 30 -47 18 -95 -29 -32 -31 -53 -45 -63 -41
-31 12 -30 37 3 71 36 37 39 51 11 66 -16 8 -26 5 -55 -21 -36 -32 -60 -33
-72 -3 -4 10 11 33 47 69 35 36 51 59 47 69 -11 29 -50 17 -98 -30 -32 -31
-53 -45 -63 -41 -27 10 -31 38 -10 56 33 28 45 48 38 65 -9 24 -44 19 -75 -10
-29 -28 -55 -27 -66 2 -4 10 11 33 47 69 35 36 51 59 47 69 -11 29 -47 17
-101 -34 l-53 -50 -21 23 c-12 13 -22 26 -22 29 0 9 180 188 189 188 3 0 172
-166 374 -368z m-913 24 c22 -24 22 -56 0 -56 -8 0 -40 61 -40 76 0 11 19 1
40 -20z m-462 -190 c7 -18 9 -41 6 -50 -4 -10 2 -26 14 -39 12 -12 31 -50 44
-85 l22 -62 -22 -22 -21 -22 -66 63 c-66 63 -80 69 -99 38 -9 -14 1 -28 53
-81 58 -58 62 -65 50 -85 -8 -11 -23 -21 -34 -21 -20 0 -185 156 -185 175 0
10 210 225 220 225 3 0 11 -15 18 -34z m1346 -388 c-31 -112 -52 -151 -96
-178 -42 -25 -78 -25 -127 0 -48 24 -85 93 -75 137 7 30 91 318 100 342 3 10
39 -19 115 -95 l110 -110 -27 -96z m-789 29 c44 -129 44 -128 -148 -197 -95
-34 -129 -34 -148 1 -22 42 -59 163 -52 170 11 11 284 108 304 108 11 1 24
-23 44 -82z m-1495 -87 c5 -45 5 -45 48 -48 37 -3 42 -6 42 -28 0 -22 -4 -24
-45 -24 l-45 0 0 -38 c0 -38 -14 -62 -36 -62 -7 0 -15 21 -19 50 l-7 50 -44 0
c-40 0 -44 2 -44 25 0 23 4 25 40 25 43 0 45 2 55 63 5 32 10 38 28 35 18 -2
23 -11 27 -48z m3400 16 c0 -57 7 -66 57 -66 40 0 44 -2 41 -22 -2 -19 -10
-24 -43 -26 -45 -4 -55 -14 -55 -60 0 -21 -6 -35 -16 -39 -21 -8 -34 14 -34
60 l0 37 -45 0 c-41 0 -45 2 -45 24 0 22 5 25 43 28 36 3 42 6 45 28 6 56 13
70 32 70 16 0 20 -7 20 -34z m-3212 -418 c4 -32 -20 -52 -53 -44 -20 5 -25 13
-25 36 0 53 72 61 78 8z m123 32 c28 -16 25 -58 -6 -72 -19 -8 -28 -8 -40 2
-20 17 -19 57 3 69 21 13 20 13 43 1z m2641 -14 c23 -33 -12 -74 -52 -61 -22
7 -28 53 -9 72 12 12 50 5 61 -11z m146 -19 c2 -18 -3 -29 -18 -37 -26 -14
-45 -8 -60 19 -8 17 -7 24 10 41 26 26 64 14 68 -23z m-2630 -4 c2 -24 -1 -33
-17 -38 -29 -9 -61 12 -61 39 0 31 9 37 45 34 26 -3 30 -8 33 -35z m2770 6 c2
-14 -4 -31 -13 -39 -23 -19 -65 2 -65 33 0 32 9 38 45 35 24 -2 31 -8 33 -29z
m-2575 -421 c9 -5 25 -21 34 -35 15 -23 18 -53 18 -207 0 -236 -14 -266 -122
-266 -103 0 -115 30 -111 278 3 171 5 192 22 211 34 38 107 47 159 19z m965 7
c15 -4 31 -23 43 -48 23 -51 24 -76 4 -83 -21 -9 -45 14 -45 42 0 25 -34 54
-62 54 -28 0 -58 -37 -58 -70 0 -46 22 -80 88 -137 32 -29 67 -69 77 -89 24
-52 16 -117 -21 -155 -24 -25 -35 -29 -80 -29 -67 0 -101 26 -115 88 -11 49
-6 62 20 62 14 0 21 -10 26 -37 9 -52 21 -63 66 -63 43 0 59 18 59 70 0 41
-22 76 -74 120 -75 63 -90 87 -94 155 -4 54 -1 64 22 92 33 39 76 47 144 28z
m1423 -8 c37 -23 44 -64 44 -260 l0 -189 -33 -29 c-25 -23 -42 -29 -77 -29
-111 0 -125 30 -125 268 0 170 1 181 23 213 32 48 113 60 168 26z m-2997 -2
c3 -8 15 -88 26 -178 25 -199 30 -225 40 -206 4 8 17 91 30 184 30 232 26 217
58 213 26 -3 27 -6 38 -93 48 -389 48 -390 80 -140 31 248 27 230 52 233 14 2
22 -2 22 -11 0 -15 -56 -421 -65 -474 -5 -30 -9 -33 -40 -33 -40 0 -38 -6 -61
160 -18 134 -28 176 -37 150 -3 -8 -13 -67 -22 -130 -27 -194 -23 -180 -61
-180 -18 0 -35 4 -38 8 -5 9 -22 118 -51 336 -9 66 -19 132 -22 148 -5 25 -3
28 20 28 14 0 27 -7 31 -15z m947 -14 c27 -27 29 -35 29 -105 0 -65 -3 -79
-24 -103 l-25 -28 24 -25 c20 -22 23 -37 27 -125 3 -91 1 -100 -16 -103 -28
-6 -36 15 -36 105 0 76 -2 83 -26 102 -15 12 -41 21 -60 21 l-33 0 -3 -112 -3
-113 -25 0 -25 0 -3 258 -2 257 86 0 c81 0 87 -1 115 -29z m179 -86 c0 -63 4
-115 9 -115 4 0 36 52 71 115 52 97 66 115 86 115 13 0 24 -4 24 -8 0 -5 -27
-56 -60 -113 -33 -57 -60 -108 -60 -112 0 -4 29 -69 65 -143 36 -75 65 -138
65 -140 0 -2 -11 -4 -25 -4 -22 0 -32 14 -80 110 -30 61 -59 110 -65 110 -20
0 -30 -42 -30 -130 l0 -91 -25 3 -25 3 -4 252 c-2 139 -1 255 2 258 3 3 16 5
29 5 23 0 23 -1 23 -115z m818 93 c-2 -19 -11 -24 -48 -28 l-45 -5 -3 -232 -2
-233 -25 0 -25 0 0 230 c0 176 -3 232 -12 235 -7 2 -29 6 -48 8 -27 2 -36 8
-38 25 -3 22 -1 22 123 22 125 0 126 0 123 -22z m248 -15 c4 -21 24 -127 45
-237 46 -237 47 -249 17 -244 -19 2 -25 13 -34 53 l-10 50 -69 0 -69 0 -10
-50 c-9 -41 -15 -51 -35 -53 -29 -4 -31 -26 31 296 l42 222 43 0 c41 0 42 -1
49 -37z m401 21 c8 -21 -14 -34 -59 -34 l-38 0 -2 -232 -3 -233 -25 0 -25 0
-3 232 -2 232 -48 3 c-40 3 -47 6 -50 26 -3 22 -2 22 123 22 106 0 127 -3 132
-16z m123 -244 l0 -260 -25 0 -25 0 0 260 0 260 25 0 25 0 0 -260z m490 238
c5 -13 30 -89 56 -170 27 -82 52 -148 56 -148 4 0 8 77 8 170 l0 170 25 0 25
0 -2 -257 -3 -258 -28 -3 c-16 -2 -29 2 -31 10 -3 7 -30 94 -62 193 -31 99
-61 184 -65 189 -5 6 -9 -80 -9 -193 l0 -202 -22 3 -23 3 -3 258 -2 257 35 0
c27 0 38 -5 45 -22z"/>
<path d="M3395 3641 c-73 -46 -115 -117 -115 -198 0 -64 19 -89 77 -101 41 -9
51 -8 75 9 35 25 43 56 32 127 -5 31 -8 85 -8 120 2 70 -8 77 -61 43z"/>
<path d="M3119 2879 c-15 -28 -3 -38 68 -61 81 -25 100 -23 105 7 6 31 5 32
-80 56 -82 23 -79 23 -93 -2z"/>
<path d="M2444 2856 c-10 -26 4 -48 28 -44 17 2 23 10 23 28 0 18 -6 26 -23
28 -13 2 -25 -3 -28 -12z"/>
<path d="M1325 946 c-18 -13 -20 -28 -23 -186 -4 -181 4 -224 38 -233 33 -8
67 4 79 29 17 37 14 354 -3 376 -19 25 -67 32 -91 14z"/>
<path d="M3718 953 c-32 -8 -39 -54 -36 -226 3 -185 9 -200 69 -200 55 0 59
16 59 219 0 178 -1 183 -22 198 -22 16 -37 18 -70 9z"/>
<path d="M1630 855 l0 -95 38 0 c21 0 48 7 60 16 19 13 22 24 22 78 0 76 -16
96 -78 96 l-42 0 0 -95z"/>
<path d="M2956 899 c-3 -13 -13 -55 -22 -93 -9 -38 -17 -92 -18 -120 l-1 -51
48 -3 c35 -2 49 1 53 12 5 14 -41 264 -51 274 -2 2 -6 -6 -9 -19z"/>
</g>
</svg>
